<svg id="Layer_1" enable-background="new 0 0 480 480" height="512" viewBox="0 0 480 480" width="512" xmlns="http://www.w3.org/2000/svg"><g><path d="m440 227v-156c0-13.233-10.767-24-24-24h-352c-13.233 0-24 10.767-24 24v129.322c0 4.418 3.582 8 8 8s8-3.582 8-8v-129.322c0-4.411 3.589-8 8-8h352c4.411 0 8 3.589 8 8v156c0 4.411-3.589 8-8 8h-352c-4.418 0-8 3.582-8 8s3.582 8 8 8h352c13.233 0 24-10.767 24-24z"/><path d="m292.353 113.863c-54.595-23.803-76.213 8.696-104.681-.594-4.201-1.372-8.718.92-10.088 5.122-1.372 4.199.922 8.716 5.122 10.087 34.057 11.125 51.929-17.995 94.479-3.414-21.272 38.751 6.96 85.936 50.815 85.936 31.981 0 58-26.019 58-58 0-29.85-22.364-54.653-52.021-57.694-4.388-.447-8.324 2.747-8.774 7.142-.451 4.396 2.747 8.324 7.142 8.774 21.466 2.201 37.653 20.162 37.653 41.778 0 23.159-18.841 42-42 42s-42-18.841-42-42c0-9.701 3.385-19.163 9.529-26.642 3.234-3.909 2.095-10.196-3.176-12.495z"/><path d="m105.439 120.223c14.902-7.095 27.611-9.189 39.992-6.588 4.322.904 8.564-1.861 9.474-6.185.908-4.324-1.86-8.565-6.185-9.474-15.77-3.313-32.178-.762-50.16 7.801-3.989 1.899-5.683 6.673-3.783 10.662 1.899 3.99 6.676 5.684 10.662 3.784z"/><path d="m94.777 176.439c1.897 3.988 6.669 5.687 10.662 3.783 46.69-22.227 60.378 10.914 93.157 10.914 13.787 0 25.781-5.635 39.207-8.544 4.317-.936 7.06-5.195 6.123-9.514s-5.194-7.058-9.514-6.123c-15.19 3.293-26.726 9.043-38.488 8.071-23.584-1.963-45.892-33.757-97.364-9.25-3.989 1.901-5.682 6.674-3.783 10.663z"/><path d="m448 4h-416c-17.645 0-32 14.355-32 32v408c0 17.645 14.355 32 32 32h356c4.418 0 8-3.582 8-8s-3.582-8-8-8h-356c-8.822 0-16-7.178-16-16v-408c0-8.822 7.178-16 16-16h416c8.822 0 16 7.178 16 16v408c0 8.822-7.178 16-16 16h-2.097c-4.418 0-8 3.582-8 8s3.582 8 8 8h2.097c17.645 0 32-14.355 32-32v-408c0-17.645-14.355-32-32-32z"/><path d="m440 395c0-13.233-10.767-24-24-24h-181v-27h90c4.418 0 8-3.582 8-8s-3.582-8-8-8h-90v-25h119v33c0 4.418 3.582 8 8 8h54c13.233 0 24-10.767 24-24v-9c0-13.233-10.767-24-24-24h-181v-8c0-4.418-3.582-8-8-8s-8 3.582-8 8v49h-56c-4.411 0-8-3.589-8-8v-9c0-4.411 3.589-8 8-8h25.097c4.418 0 8-3.582 8-8s-3.582-8-8-8h-25.097c-13.233 0-24 10.767-24 24v9c0 13.233 10.767 24 24 24h56v68h-56c-4.411 0-8-3.589-8-8v-9c0-4.411 3.589-8 8-8h24.097c4.418 0 8-3.582 8-8s-3.582-8-8-8h-24.097c-13.233 0-24 10.767-24 24v9c0 13.233 10.767 24 24 24h56v10c0 4.418 3.582 8 8 8s8-3.582 8-8v-10h90c4.418 0 8-3.582 8-8v-33h83c4.411 0 8 3.589 8 8v9c0 4.411-3.589 8-8 8h-51.129c-4.418 0-8 3.582-8 8s3.582 8 8 8h51.129c13.233 0 24-10.767 24-24zm-16-84v9c0 4.411-3.589 8-8 8h-46v-25h46c4.411 0 8 3.589 8 8zm-107 101h-82v-25h82z"/><path d="m114 316c0-4.418-3.582-8-8-8h-48c-4.418 0-8 3.582-8 8s3.582 8 8 8h48c4.418 0 8-3.582 8-8z"/><path d="m58 392c-4.418 0-8 3.582-8 8s3.582 8 8 8h38c4.418 0 8-3.582 8-8s-3.582-8-8-8z"/></g></svg>